<svg width="32" height="32" viewBox="0 0 32 32" fill="none" xmlns="http://www.w3.org/2000/svg">
<circle cx="16.3421" cy="15.6579" r="15.6579" fill="#FFCC29"/>
<g clip-path="url(#clip0_142_82)">
<path d="M16.7913 8.94727H16.7877C12.841 8.94727 9.63159 12.1576 9.63159 16.1052C9.63159 17.6709 10.1362 19.1222 10.9943 20.3006L10.1022 22.9597L12.8535 22.0802C13.9854 22.83 15.3355 23.2631 16.7913 23.2631C20.738 23.2631 23.9474 20.0518 23.9474 16.1052C23.9474 12.1585 20.738 8.94727 16.7913 8.94727ZM20.9563 19.0551C20.7836 19.5427 20.0982 19.9472 19.5515 20.0653C19.1775 20.1449 18.689 20.2084 17.0445 19.5266C14.941 18.6552 13.5863 16.5176 13.4807 16.3789C13.3796 16.2403 12.6307 15.2471 12.6307 14.2199C12.6307 13.1928 13.1524 12.6926 13.3626 12.4779C13.5353 12.3016 13.8207 12.2211 14.0945 12.2211C14.1831 12.2211 14.2627 12.2256 14.3343 12.2292C14.5446 12.2381 14.6502 12.2506 14.7889 12.5826C14.9615 12.9986 15.3821 14.0258 15.4322 14.1314C15.4832 14.2369 15.5342 14.3801 15.4626 14.5188C15.3955 14.662 15.3364 14.7255 15.2309 14.8472C15.1253 14.9688 15.0251 15.0619 14.9195 15.1925C14.8229 15.3062 14.7137 15.4278 14.8354 15.6381C14.9571 15.8439 15.3776 16.5302 15.9967 17.0813C16.7957 17.7926 17.4435 18.0199 17.6753 18.1165C17.848 18.1881 18.0537 18.1711 18.1799 18.0369C18.3401 17.8642 18.5378 17.5779 18.7391 17.2961C18.8823 17.0938 19.063 17.0688 19.2527 17.1404C19.446 17.2075 20.4686 17.713 20.6789 17.8177C20.8892 17.9233 21.0279 17.9734 21.0789 18.0619C21.129 18.1505 21.129 18.5666 20.9563 19.0551Z" fill="#39373A"/>
</g>
<defs>
<clipPath id="clip0_142_82">
<rect width="14.3158" height="14.3158" fill="white" transform="translate(9.63159 8.94727)"/>
</clipPath>
</defs>
</svg>
