<svg width="32" height="32" viewBox="0 0 32 32" fill="none" xmlns="http://www.w3.org/2000/svg">
<circle cx="16.1315" cy="15.6579" r="15.6579" fill="#FFCC29"/>
<g clip-path="url(#clip0_142_59)">
<path d="M19.9341 7.1582H13.2236C10.1356 7.1582 7.63147 9.66235 7.63147 12.7503V19.4608C7.63147 22.5488 10.1356 25.0529 13.2236 25.0529H19.9341C23.0221 25.0529 25.5262 22.5488 25.5262 19.4608V12.7503C25.5262 9.66235 23.0221 7.1582 19.9341 7.1582ZM23.8486 19.4608C23.8486 21.6194 22.0927 23.3753 19.9341 23.3753H13.2236C11.065 23.3753 9.3091 21.6194 9.3091 19.4608V12.7503C9.3091 10.5918 11.065 8.83583 13.2236 8.83583H19.9341C22.0927 8.83583 23.8486 10.5918 23.8486 12.7503V19.4608Z" fill="#39373A"/>
<path d="M16.5788 11.6318C14.1082 11.6318 12.1051 13.6349 12.1051 16.1055C12.1051 18.5761 14.1082 20.5792 16.5788 20.5792C19.0494 20.5792 21.0525 18.5761 21.0525 16.1055C21.0525 13.6349 19.0494 11.6318 16.5788 11.6318ZM16.5788 18.9016C15.0376 18.9016 13.7827 17.6467 13.7827 16.1055C13.7827 14.5632 15.0376 13.3095 16.5788 13.3095C18.12 13.3095 19.3748 14.5632 19.3748 16.1055C19.3748 17.6467 18.12 18.9016 16.5788 18.9016Z" fill="#39373A"/>
<path d="M21.3881 11.8924C21.7173 11.8924 21.9842 11.6255 21.9842 11.2963C21.9842 10.9671 21.7173 10.7002 21.3881 10.7002C21.0589 10.7002 20.792 10.9671 20.792 11.2963C20.792 11.6255 21.0589 11.8924 21.3881 11.8924Z" fill="#39373A"/>
</g>
<defs>
<clipPath id="clip0_142_59">
<rect width="17.8947" height="17.8947" fill="white" transform="translate(7.63147 7.1582)"/>
</clipPath>
</defs>
</svg>
