<svg width="33" height="32" viewBox="0 0 33 32" fill="none" xmlns="http://www.w3.org/2000/svg">
<circle cx="16.3947" cy="15.6579" r="15.6579" fill="#FFCC29"/>
<g clip-path="url(#clip0_142_47)">
<path d="M12.8856 13.4209H9.6842V23.263H12.8856V13.4209Z" fill="#39373A"/>
<path d="M21.6056 13.5363C21.5716 13.5256 21.5394 13.514 21.5036 13.5041C21.4607 13.4943 21.4177 13.4862 21.3739 13.4791C21.2039 13.4451 21.0178 13.4209 20.7995 13.4209C18.933 13.4209 17.7493 14.7782 17.3592 15.3025V13.4209H14.1578V23.263H17.3592V17.8946C17.3592 17.8946 19.7786 14.525 20.7995 16.9998C20.7995 19.209 20.7995 23.263 20.7995 23.263H23.9999V16.6214C23.9999 15.1343 22.9808 13.8951 21.6056 13.5363Z" fill="#39373A"/>
<path d="M11.25 12.0788C12.1148 12.0788 12.8158 11.3778 12.8158 10.5131C12.8158 9.64829 12.1148 8.94727 11.25 8.94727C10.3852 8.94727 9.6842 9.64829 9.6842 10.5131C9.6842 11.3778 10.3852 12.0788 11.25 12.0788Z" fill="#39373A"/>
</g>
<defs>
<clipPath id="clip0_142_47">
<rect width="14.3158" height="14.3158" fill="white" transform="translate(9.6842 8.94727)"/>
</clipPath>
</defs>
</svg>
