<svg width="33" height="32" viewBox="0 0 33 32" fill="none" xmlns="http://www.w3.org/2000/svg">
<circle cx="16.6053" cy="15.6579" r="15.6579" fill="#FFCC29"/>
<g clip-path="url(#clip0_142_76)">
<path d="M25.2394 11.1396C24.754 10.2762 24.2273 10.1174 23.1547 10.057C22.0833 9.9843 19.389 9.9541 17.0548 9.9541C14.7162 9.9541 12.0208 9.9843 10.9505 10.0559C9.88016 10.1174 9.35226 10.2751 8.8624 11.1396C8.36246 12.0019 8.10522 13.4872 8.10522 16.1021C8.10522 16.1043 8.10522 16.1054 8.10522 16.1054C8.10522 16.1077 8.10522 16.1088 8.10522 16.1088V16.111C8.10522 18.7147 8.36246 20.2111 8.8624 21.0645C9.35226 21.9279 9.87904 22.0845 10.9494 22.1572C12.0208 22.2198 14.7162 22.2567 17.0548 22.2567C19.389 22.2567 22.0833 22.2198 23.1558 22.1583C24.2284 22.0856 24.7552 21.929 25.2406 21.0656C25.745 20.2123 26 18.7158 26 16.1121C26 16.1121 26 16.1088 26 16.1065C26 16.1065 26 16.1043 26 16.1032C26 13.4872 25.745 12.0019 25.2394 11.1396ZM14.8158 19.4607V12.7502L20.4079 16.1054L14.8158 19.4607Z" fill="#39373A"/>
</g>
<defs>
<clipPath id="clip0_142_76">
<rect width="17.8947" height="17.8947" fill="white" transform="translate(8.10522 7.1582)"/>
</clipPath>
</defs>
</svg>
