<svg width="36" height="36" viewBox="0 0 36 36" fill="none" xmlns="http://www.w3.org/2000/svg">
<g id="viber 1">
<g id="_x31_2.Viber">
<path id="Icon_36_" d="M20.88 3.59961H15.12C9.576 3.59961 5.04001 8.13561 5.04001 13.6796V17.9996C5.04001 21.8876 7.30801 25.4516 10.8 27.1076V31.9316C10.8 32.3636 11.34 32.5796 11.628 32.2556L15.804 28.0796H20.88C26.424 28.0796 30.96 23.5436 30.96 17.9996V13.6796C30.96 8.13561 26.424 3.59961 20.88 3.59961ZM24.66 22.4996L23.184 23.9396C21.636 25.4516 17.64 23.7236 14.112 20.1236C10.584 16.5236 9.036 12.4916 10.512 10.9796L11.952 9.53961C12.492 8.99961 13.392 9.03561 14.004 9.57561L16.092 11.7356C16.848 12.4916 16.524 13.7876 15.552 14.0756C14.868 14.2916 14.4 15.0476 14.616 15.7316C14.976 17.3156 16.992 19.3316 18.504 19.7276C19.188 19.8716 19.944 19.5116 20.196 18.8276C20.52 17.8556 21.816 17.5676 22.536 18.3236L24.624 20.4836C25.2 20.9876 25.2 21.8876 24.66 22.4996ZM19.296 10.4396C19.152 10.4396 19.008 10.4396 18.864 10.4756C18.612 10.5116 18.36 10.2956 18.324 10.0436C18.288 9.79161 18.504 9.53961 18.756 9.50361C18.936 9.46761 19.116 9.46761 19.296 9.46761C21.924 9.46761 24.084 11.6276 24.084 14.2556C24.084 14.4356 24.084 14.6156 24.048 14.7956C24.012 15.0476 23.76 15.2636 23.508 15.2276C23.256 15.1916 23.04 14.9396 23.076 14.6876C23.076 14.5436 23.112 14.3996 23.112 14.2556C23.148 12.1676 21.42 10.4396 19.296 10.4396ZM22.176 14.2916C22.176 14.5436 21.96 14.7596 21.708 14.7596C21.456 14.7596 21.24 14.5436 21.24 14.2916C21.24 13.2476 20.376 12.3836 19.332 12.3836C19.08 12.3836 18.864 12.1676 18.864 11.9156C18.864 11.6636 19.08 11.4476 19.332 11.4476C20.88 11.4116 22.176 12.7076 22.176 14.2916ZM25.848 15.8396C25.776 16.0916 25.524 16.2716 25.236 16.1996C24.984 16.1276 24.84 15.8756 24.912 15.6236C25.02 15.1916 25.056 14.7596 25.056 14.2916C25.056 11.1236 22.464 8.53161 19.296 8.53161C19.152 8.53161 19.008 8.53161 18.864 8.53161C18.612 8.53161 18.36 8.35161 18.36 8.09961C18.36 7.84761 18.54 7.59561 18.792 7.59561C18.972 7.59561 19.152 7.55961 19.296 7.55961C23.004 7.55961 26.028 10.5836 26.028 14.2916C26.028 14.7956 25.956 15.3356 25.848 15.8396Z" fill="#39373A"/>
</g>
</g>
</svg>
